<?xml version="1.0" standalone="no"?>
<!DOCTYPE svg PUBLIC "-//W3C//DTD SVG 20010904//EN"
 "http://www.w3.org/TR/2001/REC-SVG-20010904/DTD/svg10.dtd">
<svg version="1.0" xmlns="http://www.w3.org/2000/svg"
 width="512.000000pt" height="512.000000pt" viewBox="0 0 512.000000 512.000000"
 preserveAspectRatio="xMidYMid meet">
<metadata>
Created by potrace 1.11, written by Peter Selinger 2001-2013
</metadata>
<g transform="translate(0.000000,512.000000) scale(0.100000,-0.100000)"
fill="#000000" stroke="none">
<path d="M377 5105 c-173 -47 -316 -193 -362 -366 -22 -81 -22 -4277 0 -4358
46 -176 190 -320 366 -366 81 -22 4277 -22 4358 0 176 46 320 190 366 366 22
81 22 4277 0 4358 -46 176 -190 320 -366 366 -77 21 -4287 21 -4362 0z m1863
-1075 c0 -59 -4 -67 -685 -1399 -377 -736 -685 -1344 -685 -1350 0 -8 191 -11
685 -11 l685 0 0 -125 0 -125 -865 0 -865 0 0 63 0 62 685 1339 c377 737 685
1343 685 1348 0 4 -299 8 -665 8 l-665 0 0 125 0 125 845 0 845 0 0 -60z m800
-1475 l0 -1535 -135 0 -135 0 0 1535 0 1535 135 0 135 0 0 -1535z m1554 1523
c-4 -7 -264 -347 -578 -756 -314 -409 -574 -750 -578 -757 -5 -8 192 -273 577
-774 322 -418 585 -763 585 -766 0 -3 -74 -5 -164 -5 l-163 0 -573 762 c-315
419 -573 767 -573 773 0 6 258 354 573 773 l573 762 164 0 c129 0 163 -3 157
-12z"/>
</g>
</svg>
